%TF.GenerationSoftware,KiCad,Pcbnew,9.0.6*%
%TF.CreationDate,2025-11-24T14:18:51-08:00*%
%TF.ProjectId,Hackpad,4861636b-7061-4642-9e6b-696361645f70,rev?*%
%TF.SameCoordinates,Original*%
%TF.FileFunction,Legend,Top*%
%TF.FilePolarity,Positive*%
%FSLAX46Y46*%
G04 Gerber Fmt 4.6, Leading zero omitted, Abs format (unit mm)*
G04 Created by KiCad (PCBNEW 9.0.6) date 2025-11-24 14:18:51*
%MOMM*%
%LPD*%
G01*
G04 APERTURE LIST*
%ADD10C,0.100000*%
%ADD11C,0.101600*%
%ADD12C,0.150000*%
%ADD13C,0.127000*%
%ADD14C,0.504000*%
%ADD15C,0.120000*%
G04 APERTURE END LIST*
D10*
X177087812Y-87978669D02*
X176754479Y-87502478D01*
X176516384Y-87978669D02*
X176516384Y-86978669D01*
X176516384Y-86978669D02*
X176897336Y-86978669D01*
X176897336Y-86978669D02*
X176992574Y-87026288D01*
X176992574Y-87026288D02*
X177040193Y-87073907D01*
X177040193Y-87073907D02*
X177087812Y-87169145D01*
X177087812Y-87169145D02*
X177087812Y-87312002D01*
X177087812Y-87312002D02*
X177040193Y-87407240D01*
X177040193Y-87407240D02*
X176992574Y-87454859D01*
X176992574Y-87454859D02*
X176897336Y-87502478D01*
X176897336Y-87502478D02*
X176516384Y-87502478D01*
X177516384Y-87978669D02*
X177516384Y-86978669D01*
X177944955Y-87931050D02*
X178087812Y-87978669D01*
X178087812Y-87978669D02*
X178325907Y-87978669D01*
X178325907Y-87978669D02*
X178421145Y-87931050D01*
X178421145Y-87931050D02*
X178468764Y-87883430D01*
X178468764Y-87883430D02*
X178516383Y-87788192D01*
X178516383Y-87788192D02*
X178516383Y-87692954D01*
X178516383Y-87692954D02*
X178468764Y-87597716D01*
X178468764Y-87597716D02*
X178421145Y-87550097D01*
X178421145Y-87550097D02*
X178325907Y-87502478D01*
X178325907Y-87502478D02*
X178135431Y-87454859D01*
X178135431Y-87454859D02*
X178040193Y-87407240D01*
X178040193Y-87407240D02*
X177992574Y-87359621D01*
X177992574Y-87359621D02*
X177944955Y-87264383D01*
X177944955Y-87264383D02*
X177944955Y-87169145D01*
X177944955Y-87169145D02*
X177992574Y-87073907D01*
X177992574Y-87073907D02*
X178040193Y-87026288D01*
X178040193Y-87026288D02*
X178135431Y-86978669D01*
X178135431Y-86978669D02*
X178373526Y-86978669D01*
X178373526Y-86978669D02*
X178516383Y-87026288D01*
X178944955Y-87978669D02*
X178944955Y-86978669D01*
X178944955Y-87454859D02*
X179516383Y-87454859D01*
X179516383Y-87978669D02*
X179516383Y-86978669D01*
X179992574Y-87978669D02*
X179992574Y-86978669D01*
X180516383Y-86978669D02*
X180421145Y-87169145D01*
X180897335Y-87931050D02*
X181040192Y-87978669D01*
X181040192Y-87978669D02*
X181278287Y-87978669D01*
X181278287Y-87978669D02*
X181373525Y-87931050D01*
X181373525Y-87931050D02*
X181421144Y-87883430D01*
X181421144Y-87883430D02*
X181468763Y-87788192D01*
X181468763Y-87788192D02*
X181468763Y-87692954D01*
X181468763Y-87692954D02*
X181421144Y-87597716D01*
X181421144Y-87597716D02*
X181373525Y-87550097D01*
X181373525Y-87550097D02*
X181278287Y-87502478D01*
X181278287Y-87502478D02*
X181087811Y-87454859D01*
X181087811Y-87454859D02*
X180992573Y-87407240D01*
X180992573Y-87407240D02*
X180944954Y-87359621D01*
X180944954Y-87359621D02*
X180897335Y-87264383D01*
X180897335Y-87264383D02*
X180897335Y-87169145D01*
X180897335Y-87169145D02*
X180944954Y-87073907D01*
X180944954Y-87073907D02*
X180992573Y-87026288D01*
X180992573Y-87026288D02*
X181087811Y-86978669D01*
X181087811Y-86978669D02*
X181325906Y-86978669D01*
X181325906Y-86978669D02*
X181468763Y-87026288D01*
X182659240Y-87978669D02*
X182659240Y-86978669D01*
X182659240Y-87454859D02*
X183230668Y-87454859D01*
X183230668Y-87978669D02*
X183230668Y-86978669D01*
X183659240Y-87692954D02*
X184135430Y-87692954D01*
X183564002Y-87978669D02*
X183897335Y-86978669D01*
X183897335Y-86978669D02*
X184230668Y-87978669D01*
X185135430Y-87883430D02*
X185087811Y-87931050D01*
X185087811Y-87931050D02*
X184944954Y-87978669D01*
X184944954Y-87978669D02*
X184849716Y-87978669D01*
X184849716Y-87978669D02*
X184706859Y-87931050D01*
X184706859Y-87931050D02*
X184611621Y-87835811D01*
X184611621Y-87835811D02*
X184564002Y-87740573D01*
X184564002Y-87740573D02*
X184516383Y-87550097D01*
X184516383Y-87550097D02*
X184516383Y-87407240D01*
X184516383Y-87407240D02*
X184564002Y-87216764D01*
X184564002Y-87216764D02*
X184611621Y-87121526D01*
X184611621Y-87121526D02*
X184706859Y-87026288D01*
X184706859Y-87026288D02*
X184849716Y-86978669D01*
X184849716Y-86978669D02*
X184944954Y-86978669D01*
X184944954Y-86978669D02*
X185087811Y-87026288D01*
X185087811Y-87026288D02*
X185135430Y-87073907D01*
X185564002Y-87978669D02*
X185564002Y-86978669D01*
X186135430Y-87978669D02*
X185706859Y-87407240D01*
X186135430Y-86978669D02*
X185564002Y-87550097D01*
X186564002Y-87978669D02*
X186564002Y-86978669D01*
X186564002Y-86978669D02*
X186944954Y-86978669D01*
X186944954Y-86978669D02*
X187040192Y-87026288D01*
X187040192Y-87026288D02*
X187087811Y-87073907D01*
X187087811Y-87073907D02*
X187135430Y-87169145D01*
X187135430Y-87169145D02*
X187135430Y-87312002D01*
X187135430Y-87312002D02*
X187087811Y-87407240D01*
X187087811Y-87407240D02*
X187040192Y-87454859D01*
X187040192Y-87454859D02*
X186944954Y-87502478D01*
X186944954Y-87502478D02*
X186564002Y-87502478D01*
X187516383Y-87692954D02*
X187992573Y-87692954D01*
X187421145Y-87978669D02*
X187754478Y-86978669D01*
X187754478Y-86978669D02*
X188087811Y-87978669D01*
X188421145Y-87978669D02*
X188421145Y-86978669D01*
X188421145Y-86978669D02*
X188659240Y-86978669D01*
X188659240Y-86978669D02*
X188802097Y-87026288D01*
X188802097Y-87026288D02*
X188897335Y-87121526D01*
X188897335Y-87121526D02*
X188944954Y-87216764D01*
X188944954Y-87216764D02*
X188992573Y-87407240D01*
X188992573Y-87407240D02*
X188992573Y-87550097D01*
X188992573Y-87550097D02*
X188944954Y-87740573D01*
X188944954Y-87740573D02*
X188897335Y-87835811D01*
X188897335Y-87835811D02*
X188802097Y-87931050D01*
X188802097Y-87931050D02*
X188659240Y-87978669D01*
X188659240Y-87978669D02*
X188421145Y-87978669D01*
X128796146Y-86978669D02*
X129462812Y-87978669D01*
X129462812Y-86978669D02*
X128796146Y-87978669D01*
X129843765Y-87978669D02*
X129843765Y-86978669D01*
X130272336Y-87692954D02*
X130748526Y-87692954D01*
X130177098Y-87978669D02*
X130510431Y-86978669D01*
X130510431Y-86978669D02*
X130843764Y-87978669D01*
X131367574Y-86978669D02*
X131558050Y-86978669D01*
X131558050Y-86978669D02*
X131653288Y-87026288D01*
X131653288Y-87026288D02*
X131748526Y-87121526D01*
X131748526Y-87121526D02*
X131796145Y-87312002D01*
X131796145Y-87312002D02*
X131796145Y-87645335D01*
X131796145Y-87645335D02*
X131748526Y-87835811D01*
X131748526Y-87835811D02*
X131653288Y-87931050D01*
X131653288Y-87931050D02*
X131558050Y-87978669D01*
X131558050Y-87978669D02*
X131367574Y-87978669D01*
X131367574Y-87978669D02*
X131272336Y-87931050D01*
X131272336Y-87931050D02*
X131177098Y-87835811D01*
X131177098Y-87835811D02*
X131129479Y-87645335D01*
X131129479Y-87645335D02*
X131129479Y-87312002D01*
X131129479Y-87312002D02*
X131177098Y-87121526D01*
X131177098Y-87121526D02*
X131272336Y-87026288D01*
X131272336Y-87026288D02*
X131367574Y-86978669D01*
X132986622Y-87978669D02*
X132986622Y-86978669D01*
X132986622Y-87454859D02*
X133558050Y-87454859D01*
X133558050Y-87978669D02*
X133558050Y-86978669D01*
X134034241Y-87454859D02*
X134367574Y-87454859D01*
X134510431Y-87978669D02*
X134034241Y-87978669D01*
X134034241Y-87978669D02*
X134034241Y-86978669D01*
X134034241Y-86978669D02*
X134510431Y-86978669D01*
X135510431Y-87978669D02*
X135177098Y-87502478D01*
X134939003Y-87978669D02*
X134939003Y-86978669D01*
X134939003Y-86978669D02*
X135319955Y-86978669D01*
X135319955Y-86978669D02*
X135415193Y-87026288D01*
X135415193Y-87026288D02*
X135462812Y-87073907D01*
X135462812Y-87073907D02*
X135510431Y-87169145D01*
X135510431Y-87169145D02*
X135510431Y-87312002D01*
X135510431Y-87312002D02*
X135462812Y-87407240D01*
X135462812Y-87407240D02*
X135415193Y-87454859D01*
X135415193Y-87454859D02*
X135319955Y-87502478D01*
X135319955Y-87502478D02*
X134939003Y-87502478D01*
X135939003Y-87454859D02*
X136272336Y-87454859D01*
X136415193Y-87978669D02*
X135939003Y-87978669D01*
X135939003Y-87978669D02*
X135939003Y-86978669D01*
X135939003Y-86978669D02*
X136415193Y-86978669D01*
X136843765Y-87883430D02*
X136891384Y-87931050D01*
X136891384Y-87931050D02*
X136843765Y-87978669D01*
X136843765Y-87978669D02*
X136796146Y-87931050D01*
X136796146Y-87931050D02*
X136843765Y-87883430D01*
X136843765Y-87883430D02*
X136843765Y-87978669D01*
X136843765Y-87597716D02*
X136796146Y-87026288D01*
X136796146Y-87026288D02*
X136843765Y-86978669D01*
X136843765Y-86978669D02*
X136891384Y-87026288D01*
X136891384Y-87026288D02*
X136843765Y-87597716D01*
X136843765Y-87597716D02*
X136843765Y-86978669D01*
D11*
X125722440Y-82997229D02*
X125722440Y-83511276D01*
X125722440Y-83511276D02*
X125752678Y-83571752D01*
X125752678Y-83571752D02*
X125782916Y-83601991D01*
X125782916Y-83601991D02*
X125843392Y-83632229D01*
X125843392Y-83632229D02*
X125964345Y-83632229D01*
X125964345Y-83632229D02*
X126024821Y-83601991D01*
X126024821Y-83601991D02*
X126055059Y-83571752D01*
X126055059Y-83571752D02*
X126085297Y-83511276D01*
X126085297Y-83511276D02*
X126085297Y-82997229D01*
X126720297Y-83632229D02*
X126357440Y-83632229D01*
X126538868Y-83632229D02*
X126538868Y-82997229D01*
X126538868Y-82997229D02*
X126478392Y-83087943D01*
X126478392Y-83087943D02*
X126417916Y-83148419D01*
X126417916Y-83148419D02*
X126357440Y-83178657D01*
D12*
X173061905Y-98674819D02*
X173061905Y-97674819D01*
X173061905Y-97674819D02*
X173300000Y-97674819D01*
X173300000Y-97674819D02*
X173442857Y-97722438D01*
X173442857Y-97722438D02*
X173538095Y-97817676D01*
X173538095Y-97817676D02*
X173585714Y-97912914D01*
X173585714Y-97912914D02*
X173633333Y-98103390D01*
X173633333Y-98103390D02*
X173633333Y-98246247D01*
X173633333Y-98246247D02*
X173585714Y-98436723D01*
X173585714Y-98436723D02*
X173538095Y-98531961D01*
X173538095Y-98531961D02*
X173442857Y-98627200D01*
X173442857Y-98627200D02*
X173300000Y-98674819D01*
X173300000Y-98674819D02*
X173061905Y-98674819D01*
X174014286Y-97770057D02*
X174061905Y-97722438D01*
X174061905Y-97722438D02*
X174157143Y-97674819D01*
X174157143Y-97674819D02*
X174395238Y-97674819D01*
X174395238Y-97674819D02*
X174490476Y-97722438D01*
X174490476Y-97722438D02*
X174538095Y-97770057D01*
X174538095Y-97770057D02*
X174585714Y-97865295D01*
X174585714Y-97865295D02*
X174585714Y-97960533D01*
X174585714Y-97960533D02*
X174538095Y-98103390D01*
X174538095Y-98103390D02*
X173966667Y-98674819D01*
X173966667Y-98674819D02*
X174585714Y-98674819D01*
X170828571Y-100457295D02*
X170371428Y-100457295D01*
X170600000Y-100457295D02*
X170600000Y-99657295D01*
X170600000Y-99657295D02*
X170523809Y-99771580D01*
X170523809Y-99771580D02*
X170447619Y-99847771D01*
X170447619Y-99847771D02*
X170371428Y-99885866D01*
X134826667Y-108023200D02*
X134969524Y-108070819D01*
X134969524Y-108070819D02*
X135207619Y-108070819D01*
X135207619Y-108070819D02*
X135302857Y-108023200D01*
X135302857Y-108023200D02*
X135350476Y-107975580D01*
X135350476Y-107975580D02*
X135398095Y-107880342D01*
X135398095Y-107880342D02*
X135398095Y-107785104D01*
X135398095Y-107785104D02*
X135350476Y-107689866D01*
X135350476Y-107689866D02*
X135302857Y-107642247D01*
X135302857Y-107642247D02*
X135207619Y-107594628D01*
X135207619Y-107594628D02*
X135017143Y-107547009D01*
X135017143Y-107547009D02*
X134921905Y-107499390D01*
X134921905Y-107499390D02*
X134874286Y-107451771D01*
X134874286Y-107451771D02*
X134826667Y-107356533D01*
X134826667Y-107356533D02*
X134826667Y-107261295D01*
X134826667Y-107261295D02*
X134874286Y-107166057D01*
X134874286Y-107166057D02*
X134921905Y-107118438D01*
X134921905Y-107118438D02*
X135017143Y-107070819D01*
X135017143Y-107070819D02*
X135255238Y-107070819D01*
X135255238Y-107070819D02*
X135398095Y-107118438D01*
X135731429Y-107070819D02*
X135969524Y-108070819D01*
X135969524Y-108070819D02*
X136160000Y-107356533D01*
X136160000Y-107356533D02*
X136350476Y-108070819D01*
X136350476Y-108070819D02*
X136588572Y-107070819D01*
X136921905Y-107166057D02*
X136969524Y-107118438D01*
X136969524Y-107118438D02*
X137064762Y-107070819D01*
X137064762Y-107070819D02*
X137302857Y-107070819D01*
X137302857Y-107070819D02*
X137398095Y-107118438D01*
X137398095Y-107118438D02*
X137445714Y-107166057D01*
X137445714Y-107166057D02*
X137493333Y-107261295D01*
X137493333Y-107261295D02*
X137493333Y-107356533D01*
X137493333Y-107356533D02*
X137445714Y-107499390D01*
X137445714Y-107499390D02*
X136874286Y-108070819D01*
X136874286Y-108070819D02*
X137493333Y-108070819D01*
X173061905Y-90724819D02*
X173061905Y-89724819D01*
X173061905Y-89724819D02*
X173300000Y-89724819D01*
X173300000Y-89724819D02*
X173442857Y-89772438D01*
X173442857Y-89772438D02*
X173538095Y-89867676D01*
X173538095Y-89867676D02*
X173585714Y-89962914D01*
X173585714Y-89962914D02*
X173633333Y-90153390D01*
X173633333Y-90153390D02*
X173633333Y-90296247D01*
X173633333Y-90296247D02*
X173585714Y-90486723D01*
X173585714Y-90486723D02*
X173538095Y-90581961D01*
X173538095Y-90581961D02*
X173442857Y-90677200D01*
X173442857Y-90677200D02*
X173300000Y-90724819D01*
X173300000Y-90724819D02*
X173061905Y-90724819D01*
X174585714Y-90724819D02*
X174014286Y-90724819D01*
X174300000Y-90724819D02*
X174300000Y-89724819D01*
X174300000Y-89724819D02*
X174204762Y-89867676D01*
X174204762Y-89867676D02*
X174109524Y-89962914D01*
X174109524Y-89962914D02*
X174014286Y-90010533D01*
X170828571Y-92507295D02*
X170371428Y-92507295D01*
X170600000Y-92507295D02*
X170600000Y-91707295D01*
X170600000Y-91707295D02*
X170523809Y-91821580D01*
X170523809Y-91821580D02*
X170447619Y-91897771D01*
X170447619Y-91897771D02*
X170371428Y-91935866D01*
X153876667Y-108023200D02*
X154019524Y-108070819D01*
X154019524Y-108070819D02*
X154257619Y-108070819D01*
X154257619Y-108070819D02*
X154352857Y-108023200D01*
X154352857Y-108023200D02*
X154400476Y-107975580D01*
X154400476Y-107975580D02*
X154448095Y-107880342D01*
X154448095Y-107880342D02*
X154448095Y-107785104D01*
X154448095Y-107785104D02*
X154400476Y-107689866D01*
X154400476Y-107689866D02*
X154352857Y-107642247D01*
X154352857Y-107642247D02*
X154257619Y-107594628D01*
X154257619Y-107594628D02*
X154067143Y-107547009D01*
X154067143Y-107547009D02*
X153971905Y-107499390D01*
X153971905Y-107499390D02*
X153924286Y-107451771D01*
X153924286Y-107451771D02*
X153876667Y-107356533D01*
X153876667Y-107356533D02*
X153876667Y-107261295D01*
X153876667Y-107261295D02*
X153924286Y-107166057D01*
X153924286Y-107166057D02*
X153971905Y-107118438D01*
X153971905Y-107118438D02*
X154067143Y-107070819D01*
X154067143Y-107070819D02*
X154305238Y-107070819D01*
X154305238Y-107070819D02*
X154448095Y-107118438D01*
X154781429Y-107070819D02*
X155019524Y-108070819D01*
X155019524Y-108070819D02*
X155210000Y-107356533D01*
X155210000Y-107356533D02*
X155400476Y-108070819D01*
X155400476Y-108070819D02*
X155638572Y-107070819D01*
X155924286Y-107070819D02*
X156543333Y-107070819D01*
X156543333Y-107070819D02*
X156210000Y-107451771D01*
X156210000Y-107451771D02*
X156352857Y-107451771D01*
X156352857Y-107451771D02*
X156448095Y-107499390D01*
X156448095Y-107499390D02*
X156495714Y-107547009D01*
X156495714Y-107547009D02*
X156543333Y-107642247D01*
X156543333Y-107642247D02*
X156543333Y-107880342D01*
X156543333Y-107880342D02*
X156495714Y-107975580D01*
X156495714Y-107975580D02*
X156448095Y-108023200D01*
X156448095Y-108023200D02*
X156352857Y-108070819D01*
X156352857Y-108070819D02*
X156067143Y-108070819D01*
X156067143Y-108070819D02*
X155971905Y-108023200D01*
X155971905Y-108023200D02*
X155924286Y-107975580D01*
X153876667Y-88973200D02*
X154019524Y-89020819D01*
X154019524Y-89020819D02*
X154257619Y-89020819D01*
X154257619Y-89020819D02*
X154352857Y-88973200D01*
X154352857Y-88973200D02*
X154400476Y-88925580D01*
X154400476Y-88925580D02*
X154448095Y-88830342D01*
X154448095Y-88830342D02*
X154448095Y-88735104D01*
X154448095Y-88735104D02*
X154400476Y-88639866D01*
X154400476Y-88639866D02*
X154352857Y-88592247D01*
X154352857Y-88592247D02*
X154257619Y-88544628D01*
X154257619Y-88544628D02*
X154067143Y-88497009D01*
X154067143Y-88497009D02*
X153971905Y-88449390D01*
X153971905Y-88449390D02*
X153924286Y-88401771D01*
X153924286Y-88401771D02*
X153876667Y-88306533D01*
X153876667Y-88306533D02*
X153876667Y-88211295D01*
X153876667Y-88211295D02*
X153924286Y-88116057D01*
X153924286Y-88116057D02*
X153971905Y-88068438D01*
X153971905Y-88068438D02*
X154067143Y-88020819D01*
X154067143Y-88020819D02*
X154305238Y-88020819D01*
X154305238Y-88020819D02*
X154448095Y-88068438D01*
X154781429Y-88020819D02*
X155019524Y-89020819D01*
X155019524Y-89020819D02*
X155210000Y-88306533D01*
X155210000Y-88306533D02*
X155400476Y-89020819D01*
X155400476Y-89020819D02*
X155638572Y-88020819D01*
X156543333Y-89020819D02*
X155971905Y-89020819D01*
X156257619Y-89020819D02*
X156257619Y-88020819D01*
X156257619Y-88020819D02*
X156162381Y-88163676D01*
X156162381Y-88163676D02*
X156067143Y-88258914D01*
X156067143Y-88258914D02*
X155971905Y-88306533D01*
X172926667Y-108023200D02*
X173069524Y-108070819D01*
X173069524Y-108070819D02*
X173307619Y-108070819D01*
X173307619Y-108070819D02*
X173402857Y-108023200D01*
X173402857Y-108023200D02*
X173450476Y-107975580D01*
X173450476Y-107975580D02*
X173498095Y-107880342D01*
X173498095Y-107880342D02*
X173498095Y-107785104D01*
X173498095Y-107785104D02*
X173450476Y-107689866D01*
X173450476Y-107689866D02*
X173402857Y-107642247D01*
X173402857Y-107642247D02*
X173307619Y-107594628D01*
X173307619Y-107594628D02*
X173117143Y-107547009D01*
X173117143Y-107547009D02*
X173021905Y-107499390D01*
X173021905Y-107499390D02*
X172974286Y-107451771D01*
X172974286Y-107451771D02*
X172926667Y-107356533D01*
X172926667Y-107356533D02*
X172926667Y-107261295D01*
X172926667Y-107261295D02*
X172974286Y-107166057D01*
X172974286Y-107166057D02*
X173021905Y-107118438D01*
X173021905Y-107118438D02*
X173117143Y-107070819D01*
X173117143Y-107070819D02*
X173355238Y-107070819D01*
X173355238Y-107070819D02*
X173498095Y-107118438D01*
X173831429Y-107070819D02*
X174069524Y-108070819D01*
X174069524Y-108070819D02*
X174260000Y-107356533D01*
X174260000Y-107356533D02*
X174450476Y-108070819D01*
X174450476Y-108070819D02*
X174688572Y-107070819D01*
X175498095Y-107404152D02*
X175498095Y-108070819D01*
X175260000Y-107023200D02*
X175021905Y-107737485D01*
X175021905Y-107737485D02*
X175640952Y-107737485D01*
D13*
%TO.C,U1*%
X124380000Y-103107500D02*
X124380000Y-85962500D01*
X126285000Y-105012500D02*
X140255000Y-105012500D01*
X128775000Y-84057500D02*
X128778728Y-83147228D01*
X129278728Y-82647500D02*
X137274000Y-82647500D01*
X137774000Y-83147500D02*
X137774000Y-84057500D01*
D10*
X140255000Y-84057500D02*
X126285000Y-84057500D01*
D13*
X140255000Y-84057500D02*
X126285000Y-84057500D01*
X142160000Y-103107500D02*
X142160000Y-85962500D01*
X124380000Y-85962500D02*
G75*
G02*
X126285000Y-84057500I1905001J-1D01*
G01*
X126285000Y-105012500D02*
G75*
G02*
X124380000Y-103107500I1J1905001D01*
G01*
X128778728Y-83147228D02*
G75*
G02*
X129278728Y-82647501I500018J-291D01*
G01*
X137274000Y-82647500D02*
G75*
G02*
X137774000Y-83147500I0J-500000D01*
G01*
X140255000Y-84057500D02*
G75*
G02*
X142160000Y-85962500I0J-1905000D01*
G01*
X142160000Y-103107500D02*
G75*
G02*
X140255000Y-105012500I-1905000J0D01*
G01*
D14*
X124572000Y-84298500D02*
G75*
G02*
X124068000Y-84298500I-252000J0D01*
G01*
X124068000Y-84298500D02*
G75*
G02*
X124572000Y-84298500I252000J0D01*
G01*
X125715000Y-85178500D02*
G75*
G02*
X125211000Y-85178500I-252000J0D01*
G01*
X125211000Y-85178500D02*
G75*
G02*
X125715000Y-85178500I252000J0D01*
G01*
D15*
%TO.C,D2*%
X171000000Y-98970000D02*
X171000000Y-102970000D01*
X171000000Y-98970000D02*
X176600000Y-98970000D01*
X171000000Y-102970000D02*
X176000000Y-102970000D01*
X176600000Y-102370000D02*
X176000000Y-102970000D01*
X176600000Y-102370000D02*
X176600000Y-98970000D01*
%TO.C,SW2*%
X129175000Y-108505000D02*
X143145000Y-108505000D01*
X129175000Y-122475000D02*
X129175000Y-108505000D01*
X143145000Y-108505000D02*
X143145000Y-122475000D01*
X143145000Y-122475000D02*
X129175000Y-122475000D01*
%TO.C,D1*%
X171000000Y-91020000D02*
X171000000Y-95020000D01*
X171000000Y-91020000D02*
X176600000Y-91020000D01*
X171000000Y-95020000D02*
X176000000Y-95020000D01*
X176600000Y-94420000D02*
X176000000Y-95020000D01*
X176600000Y-94420000D02*
X176600000Y-91020000D01*
%TO.C,SW3*%
X148225000Y-108505000D02*
X162195000Y-108505000D01*
X148225000Y-122475000D02*
X148225000Y-108505000D01*
X162195000Y-108505000D02*
X162195000Y-122475000D01*
X162195000Y-122475000D02*
X148225000Y-122475000D01*
%TO.C,SW1*%
X148225000Y-89455000D02*
X162195000Y-89455000D01*
X148225000Y-103425000D02*
X148225000Y-89455000D01*
X162195000Y-89455000D02*
X162195000Y-103425000D01*
X162195000Y-103425000D02*
X148225000Y-103425000D01*
%TO.C,SW4*%
X167275000Y-108505000D02*
X181245000Y-108505000D01*
X167275000Y-122475000D02*
X167275000Y-108505000D01*
X181245000Y-108505000D02*
X181245000Y-122475000D01*
X181245000Y-122475000D02*
X167275000Y-122475000D01*
%TD*%
M02*
