%TF.GenerationSoftware,KiCad,Pcbnew,9.0.6*%
%TF.CreationDate,2025-11-24T17:16:53-08:00*%
%TF.ProjectId,Hackpad,4861636b-7061-4642-9e6b-696361645f70,rev?*%
%TF.SameCoordinates,Original*%
%TF.FileFunction,Copper,L1,Top*%
%TF.FilePolarity,Positive*%
%FSLAX46Y46*%
G04 Gerber Fmt 4.6, Leading zero omitted, Abs format (unit mm)*
G04 Created by KiCad (PCBNEW 9.0.6) date 2025-11-24 17:16:53*
%MOMM*%
%LPD*%
G01*
G04 APERTURE LIST*
G04 Aperture macros list*
%AMRoundRect*
0 Rectangle with rounded corners*
0 $1 Rounding radius*
0 $2 $3 $4 $5 $6 $7 $8 $9 X,Y pos of 4 corners*
0 Add a 4 corners polygon primitive as box body*
4,1,4,$2,$3,$4,$5,$6,$7,$8,$9,$2,$3,0*
0 Add four circle primitives for the rounded corners*
1,1,$1+$1,$2,$3*
1,1,$1+$1,$4,$5*
1,1,$1+$1,$6,$7*
1,1,$1+$1,$8,$9*
0 Add four rect primitives between the rounded corners*
20,1,$1+$1,$2,$3,$4,$5,0*
20,1,$1+$1,$4,$5,$6,$7,0*
20,1,$1+$1,$6,$7,$8,$9,0*
20,1,$1+$1,$8,$9,$2,$3,0*%
G04 Aperture macros list end*
%TA.AperFunction,SMDPad,CuDef*%
%ADD10RoundRect,0.152400X1.063600X0.609600X-1.063600X0.609600X-1.063600X-0.609600X1.063600X-0.609600X0*%
%TD*%
%TA.AperFunction,ComponentPad*%
%ADD11C,1.524000*%
%TD*%
%TA.AperFunction,SMDPad,CuDef*%
%ADD12RoundRect,0.152400X-1.063600X-0.609600X1.063600X-0.609600X1.063600X0.609600X-1.063600X0.609600X0*%
%TD*%
%TA.AperFunction,SMDPad,CuDef*%
%ADD13R,1.600000X0.850000*%
%TD*%
%TA.AperFunction,ComponentPad*%
%ADD14C,2.200000*%
%TD*%
%TA.AperFunction,Conductor*%
%ADD15C,0.200000*%
%TD*%
G04 APERTURE END LIST*
D10*
%TO.P,U1,1,GPIO26/ADC0/A0*%
%TO.N,unconnected-(U1-GPIO26{slash}ADC0{slash}A0-Pad1)*%
X124815000Y-86978500D03*
D11*
X125650000Y-86978500D03*
D10*
%TO.P,U1,2,GPIO27/ADC1/A1*%
%TO.N,unconnected-(U1-GPIO27{slash}ADC1{slash}A1-Pad2)*%
X124815000Y-89518500D03*
D11*
X125650000Y-89518500D03*
D10*
%TO.P,U1,3,GPIO28/ADC2/A2*%
%TO.N,unconnected-(U1-GPIO28{slash}ADC2{slash}A2-Pad3)*%
X124815000Y-92058500D03*
D11*
X125650000Y-92058500D03*
D10*
%TO.P,U1,4,GPIO29/ADC3/A3*%
%TO.N,unconnected-(U1-GPIO29{slash}ADC3{slash}A3-Pad4)*%
X124815000Y-94598500D03*
D11*
X125650000Y-94598500D03*
D10*
%TO.P,U1,5,GPIO6/SDA*%
%TO.N,Net-(D1-DIN)*%
X124815000Y-97138500D03*
D11*
X125650000Y-97138500D03*
D10*
%TO.P,U1,6,GPIO7/SCL*%
%TO.N,unconnected-(U1-GPIO7{slash}SCL-Pad6)*%
X124815000Y-99678500D03*
D11*
X125650000Y-99678500D03*
D10*
%TO.P,U1,7,GPIO0/TX*%
%TO.N,unconnected-(U1-GPIO0{slash}TX-Pad7)*%
X124815000Y-102218500D03*
D11*
X125650000Y-102218500D03*
%TO.P,U1,8,GPIO1/RX*%
%TO.N,Net-(U1-GPIO1{slash}RX)*%
X140890000Y-102218500D03*
D12*
X141725000Y-102218500D03*
D11*
%TO.P,U1,9,GPIO2/SCK*%
%TO.N,Net-(U1-GPIO2{slash}SCK)*%
X140890000Y-99678500D03*
D12*
X141725000Y-99678500D03*
D11*
%TO.P,U1,10,GPIO4/MISO*%
%TO.N,Net-(U1-GPIO4{slash}MISO)*%
X140890000Y-97138500D03*
D12*
X141725000Y-97138500D03*
D11*
%TO.P,U1,11,GPIO3/MOSI*%
%TO.N,Net-(U1-GPIO3{slash}MOSI)*%
X140890000Y-94598500D03*
D12*
X141725000Y-94598500D03*
D11*
%TO.P,U1,12,3V3*%
%TO.N,unconnected-(U1-3V3-Pad12)*%
X140890000Y-92058500D03*
D12*
X141725000Y-92058500D03*
D11*
%TO.P,U1,13,GND*%
%TO.N,GND*%
X140890000Y-89518500D03*
D12*
X141725000Y-89518500D03*
D11*
%TO.P,U1,14,VBUS*%
%TO.N,+5V*%
X140890000Y-86978500D03*
D12*
X141725000Y-86978500D03*
%TD*%
D13*
%TO.P,D2,1,DOUT*%
%TO.N,unconnected-(D2-DOUT-Pad1)*%
X172050000Y-100095000D03*
%TO.P,D2,2,VSS*%
%TO.N,GND*%
X172050000Y-101845000D03*
%TO.P,D2,3,DIN*%
%TO.N,Net-(D1-DOUT)*%
X175550000Y-101845000D03*
%TO.P,D2,4,VDD*%
%TO.N,+5V*%
X175550000Y-100095000D03*
%TD*%
D14*
%TO.P,SW2,1,1*%
%TO.N,GND*%
X138700000Y-110410000D03*
%TO.P,SW2,2,2*%
%TO.N,Net-(U1-GPIO2{slash}SCK)*%
X132350000Y-112950000D03*
%TD*%
D13*
%TO.P,D1,1,DOUT*%
%TO.N,Net-(D1-DOUT)*%
X172050000Y-92145000D03*
%TO.P,D1,2,VSS*%
%TO.N,GND*%
X172050000Y-93895000D03*
%TO.P,D1,3,DIN*%
%TO.N,Net-(D1-DIN)*%
X175550000Y-93895000D03*
%TO.P,D1,4,VDD*%
%TO.N,+5V*%
X175550000Y-92145000D03*
%TD*%
D14*
%TO.P,SW3,1,1*%
%TO.N,GND*%
X157750000Y-110410000D03*
%TO.P,SW3,2,2*%
%TO.N,Net-(U1-GPIO4{slash}MISO)*%
X151400000Y-112950000D03*
%TD*%
%TO.P,SW1,1,1*%
%TO.N,Net-(U1-GPIO1{slash}RX)*%
X157750000Y-91360000D03*
%TO.P,SW1,2,2*%
%TO.N,GND*%
X151400000Y-93900000D03*
%TD*%
%TO.P,SW4,1,1*%
%TO.N,GND*%
X176800000Y-110410000D03*
%TO.P,SW4,2,2*%
%TO.N,Net-(U1-GPIO3{slash}MOSI)*%
X170450000Y-112950000D03*
%TD*%
D15*
%TO.N,Net-(U1-GPIO2{slash}SCK)*%
X141725000Y-99678500D02*
X140890000Y-99678500D01*
%TO.N,+5V*%
X176651000Y-98994000D02*
X176651000Y-93246000D01*
X176651000Y-93246000D02*
X175550000Y-92145000D01*
X175550000Y-100095000D02*
X176651000Y-98994000D01*
X170383500Y-86978500D02*
X140890000Y-86978500D01*
X175550000Y-92145000D02*
X170383500Y-86978500D01*
%TO.N,GND*%
X172050000Y-105660000D02*
X172050000Y-101845000D01*
X159151000Y-90779686D02*
X157889814Y-89518500D01*
X146748470Y-110410000D02*
X138700000Y-110410000D01*
X151331000Y-114992530D02*
X146748470Y-110410000D01*
X161105686Y-93895000D02*
X159151000Y-91940314D01*
X157750000Y-110410000D02*
X156908470Y-110410000D01*
X176800000Y-110410000D02*
X172050000Y-105660000D01*
X157750000Y-94458686D02*
X157750000Y-110410000D01*
X157889814Y-89518500D02*
X140890000Y-89518500D01*
X151400000Y-93900000D02*
X157191314Y-93900000D01*
X159151000Y-91940314D02*
X159151000Y-90779686D01*
X156908470Y-110410000D02*
X152325940Y-114992530D01*
X170949000Y-100744000D02*
X170949000Y-94996000D01*
X152325940Y-114992530D02*
X151331000Y-114992530D01*
X172050000Y-101845000D02*
X170949000Y-100744000D01*
X157191314Y-93900000D02*
X157750000Y-94458686D01*
X170949000Y-94996000D02*
X172050000Y-93895000D01*
X157191314Y-93900000D02*
X159151000Y-91940314D01*
X172050000Y-93895000D02*
X161105686Y-93895000D01*
%TO.N,Net-(U1-GPIO1{slash}RX)*%
X157750000Y-91360000D02*
X157750000Y-92281250D01*
%TO.N,Net-(U1-GPIO2{slash}SCK)*%
X140890000Y-99678500D02*
X141503626Y-99678500D01*
X133312126Y-112950000D02*
X132350000Y-112950000D01*
%TO.N,Net-(U1-GPIO4{slash}MISO)*%
X141967630Y-97138500D02*
X140890000Y-97138500D01*
X151400000Y-112950000D02*
X151400000Y-106570870D01*
X151400000Y-106570870D02*
X141967630Y-97138500D01*
%TO.N,Net-(D1-DOUT)*%
X173151000Y-93246000D02*
X172050000Y-92145000D01*
X173151000Y-99446000D02*
X173151000Y-93246000D01*
X175550000Y-101845000D02*
X173151000Y-99446000D01*
%TO.N,Net-(D1-DIN)*%
X170110500Y-88455500D02*
X134333000Y-88455500D01*
X134333000Y-88455500D02*
X125650000Y-97138500D01*
X175550000Y-93895000D02*
X170110500Y-88455500D01*
%TD*%
M02*
